# xmcd CD database file
#
# Track frame offsets:
#	150
#	13075
#	27712
#	39712
#	51225
#	61962
#	74887
#	84587
#	98750
#	112762
#	124212
#	138975
#
# Disc length: 2018 seconds
#
# Revision: 0
# Processed by: cddbd v1.5.1PL2 Copyright (c) Steve Scherf et al.
# Submitted via: CDex 1.51
#
DISCID=ad07e00c
DTITLE=Patrick Morrissey - I'm Pat Morrisey - I Sing
DYEAR=2001
DGENRE=Jazz
TTITLE0=Shadow Woman
TTITLE1=Makin Whoopee
TTITLE2=Don't Explain
TTITLE3=He's Funny That Way
TTITLE4=Get Happy
TTITLE5=You Don't Know What Love Is
TTITLE6=Why Don't You Do Right
TTITLE7=I Cover the Waterfront
TTITLE8=Crazy He Calls Me
TTITLE9=Exactly Like You
TTITLE10=No Tears for Me
TTITLE11=Give Me the Simple Life
EXTD=YEAR: 2001
EXTT0=
EXTT1=
EXTT2=
EXTT3=
EXTT4=
EXTT5=
EXTT6=
EXTT7=
EXTT8=
EXTT9=
EXTT10=
EXTT11=
PLAYORDER=
